<?xml version="1.0" standalone="no"?>
<!DOCTYPE svg PUBLIC "-//W3C//DTD SVG 20010904//EN"
 "http://www.w3.org/TR/2001/REC-SVG-20010904/DTD/svg10.dtd">
<svg version="1.0" xmlns="http://www.w3.org/2000/svg"
 width="200.000000pt" height="200.000000pt" viewBox="0 0 200.000000 200.000000"
 preserveAspectRatio="xMidYMid meet">

<g transform="translate(0.000000,200.000000) scale(0.100000,-0.100000)"
fill="#000000" stroke="none">
<path d="M903 1683 c-16 -6 -18 -129 -3 -138 21 -13 7 -22 -56 -34 -80 -16
-175 -62 -207 -100 -13 -16 -33 -32 -44 -35 -28 -9 -36 -32 -17 -51 13 -12 13
-26 5 -91 -6 -41 -11 -82 -11 -89 0 -15 19 -20 154 -36 54 -6 92 -15 85 -19
-8 -4 -120 -20 -249 -35 -129 -15 -238 -31 -242 -34 -4 -4 114 -22 264 -40
149 -18 283 -37 297 -41 l26 -8 -30 -2 c-27 -2 -26 -3 15 -15 25 -7 41 -13 35
-14 -121 -10 -522 -67 -504 -71 13 -4 149 -22 302 -41 152 -18 277 -36 277
-39 0 -3 -107 -19 -237 -34 -131 -16 -241 -32 -245 -35 -5 -4 -15 -58 -23
-121 -9 -67 -21 -119 -28 -125 -25 -19 -27 -44 -4 -70 40 -47 144 -59 512 -59
322 -1 423 7 502 39 42 18 55 61 26 85 -16 13 -23 40 -36 144 -9 71 -14 132
-12 136 3 4 57 13 120 20 63 7 115 16 115 20 0 4 -30 11 -67 14 -38 4 -115 13
-172 20 l-104 13 7 -106 c4 -58 9 -132 13 -165 l6 -58 -79 6 c-43 4 -107 9
-140 12 l-61 6 -6 72 c-3 39 -11 155 -18 259 l-12 187 -29 0 c-17 0 -27 4 -23
10 3 6 15 10 27 10 20 0 20 3 14 128 -4 70 -10 142 -13 160 l-5 32 85 0 c71 0
184 -13 193 -23 2 -2 6 -41 9 -87 3 -47 8 -105 11 -129 l6 -43 74 7 c40 4 86
10 101 14 23 6 17 9 -36 14 -35 4 -66 9 -69 11 -2 3 -10 49 -16 103 -12 86
-11 99 2 109 20 14 9 42 -20 53 -13 5 -36 23 -51 39 -36 38 -128 80 -207 94
-58 11 -71 20 -50 33 6 3 10 35 10 70 0 48 -4 64 -16 69 -18 7 -133 7 -151 -1z
m126 -9 c29 -6 31 -10 31 -48 l0 -41 -75 3 -75 4 0 38 c0 28 5 40 18 43 27 7
67 8 101 1z m-1 -131 c2 -9 -11 -13 -47 -13 -48 0 -61 7 -44 24 12 11 86 2 91
-11z m93 -47 c74 -16 154 -53 183 -85 l19 -20 -54 7 c-71 9 -486 9 -568 0 -57
-7 -62 -6 -50 8 67 81 301 125 470 90z m184 -126 c33 -6 65 -16 70 -22 7 -7 3
-8 -12 -4 -132 40 -609 44 -741 7 -18 -6 -30 -6 -27 -1 7 11 45 19 147 30 98
12 488 4 563 -10z m-542 -917 c-7 -2 -19 -2 -25 0 -7 3 -2 5 12 5 14 0 19 -2
13 -5z m470 0 c-7 -2 -21 -2 -30 0 -10 3 -4 5 12 5 17 0 24 -2 18 -5z m-586
-9 c-3 -3 -12 -4 -19 -1 -8 3 -5 6 6 6 11 1 17 -2 13 -5z m700 0 c-3 -3 -12
-4 -19 -1 -8 3 -5 6 6 6 11 1 17 -2 13 -5z m-109 -19 c119 -7 215 -23 238 -40
16 -11 14 -13 -17 -23 -83 -28 -203 -36 -484 -36 -221 0 -312 4 -384 17 -87
15 -123 29 -109 42 15 16 172 38 313 44 155 8 238 7 443 -4z"/>
<path d="M965 1656 c-22 -16 -15 -50 11 -54 25 -4 47 19 38 41 -8 22 -29 28
-49 13z m30 -16 c11 -17 -5 -32 -21 -19 -7 6 -11 15 -8 20 7 12 21 11 29 -1z"/>
<path d="M1340 921 c0 -46 2 -51 23 -50 45 2 281 37 255 38 -14 0 -35 4 -45 8
-14 6 -10 9 17 13 35 6 19 9 -202 37 l-48 6 0 -52z"/>
</g>
</svg>
